<mxfile host="app.diagrams.net" modified="2021-10-06T17:13:34.277Z" agent="5.0 (X11)" etag="XWSv_T3ktWEs_2K0ej-J" version="15.4.3" type="github">
  <diagram id="NCS5fsaMrwW40-HjUxwn" name="Page-1">
    <mxGraphModel dx="1040" dy="429" grid="1" gridSize="10" guides="1" tooltips="1" connect="1" arrows="1" fold="1" page="1" pageScale="1" pageWidth="827" pageHeight="1169" math="0" shadow="0">
      <root>
        <mxCell id="0" />
        <mxCell id="1" parent="0" />
        <mxCell id="U9MDgQQBb6Hw-BR3MC8H-17" style="edgeStyle=orthogonalEdgeStyle;rounded=0;orthogonalLoop=1;jettySize=auto;html=1;exitX=0.5;exitY=0;exitDx=0;exitDy=0;endArrow=none;endFill=0;" edge="1" parent="1" source="rF3KOP-z4oXcImILUK9P-1" target="U9MDgQQBb6Hw-BR3MC8H-12">
          <mxGeometry relative="1" as="geometry" />
        </mxCell>
        <mxCell id="U9MDgQQBb6Hw-BR3MC8H-18" style="edgeStyle=orthogonalEdgeStyle;rounded=0;orthogonalLoop=1;jettySize=auto;html=1;exitX=0.5;exitY=0;exitDx=0;exitDy=0;endArrow=none;endFill=0;" edge="1" parent="1" source="rF3KOP-z4oXcImILUK9P-1" target="U9MDgQQBb6Hw-BR3MC8H-11">
          <mxGeometry relative="1" as="geometry" />
        </mxCell>
        <mxCell id="U9MDgQQBb6Hw-BR3MC8H-19" style="edgeStyle=orthogonalEdgeStyle;rounded=0;orthogonalLoop=1;jettySize=auto;html=1;exitX=0.5;exitY=0;exitDx=0;exitDy=0;entryX=0.5;entryY=1;entryDx=0;entryDy=0;endArrow=none;endFill=0;" edge="1" parent="1" source="rF3KOP-z4oXcImILUK9P-1" target="U9MDgQQBb6Hw-BR3MC8H-13">
          <mxGeometry relative="1" as="geometry" />
        </mxCell>
        <mxCell id="U9MDgQQBb6Hw-BR3MC8H-20" style="edgeStyle=orthogonalEdgeStyle;rounded=0;orthogonalLoop=1;jettySize=auto;html=1;exitX=0.5;exitY=0;exitDx=0;exitDy=0;entryX=0.5;entryY=1;entryDx=0;entryDy=0;endArrow=none;endFill=0;" edge="1" parent="1" source="rF3KOP-z4oXcImILUK9P-1" target="U9MDgQQBb6Hw-BR3MC8H-9">
          <mxGeometry relative="1" as="geometry" />
        </mxCell>
        <mxCell id="U9MDgQQBb6Hw-BR3MC8H-21" style="edgeStyle=orthogonalEdgeStyle;rounded=0;orthogonalLoop=1;jettySize=auto;html=1;exitX=0;exitY=0.5;exitDx=0;exitDy=0;entryX=1;entryY=0.5;entryDx=0;entryDy=0;endArrow=none;endFill=0;" edge="1" parent="1" source="rF3KOP-z4oXcImILUK9P-1" target="U9MDgQQBb6Hw-BR3MC8H-15">
          <mxGeometry relative="1" as="geometry" />
        </mxCell>
        <mxCell id="U9MDgQQBb6Hw-BR3MC8H-22" style="edgeStyle=orthogonalEdgeStyle;rounded=0;orthogonalLoop=1;jettySize=auto;html=1;exitX=0;exitY=0.5;exitDx=0;exitDy=0;entryX=1;entryY=0.5;entryDx=0;entryDy=0;endArrow=none;endFill=0;" edge="1" parent="1" source="rF3KOP-z4oXcImILUK9P-1" target="U9MDgQQBb6Hw-BR3MC8H-16">
          <mxGeometry relative="1" as="geometry" />
        </mxCell>
        <mxCell id="rF3KOP-z4oXcImILUK9P-1" value="CAMIONER" style="rounded=0;whiteSpace=wrap;html=1;" parent="1" vertex="1">
          <mxGeometry x="120" y="190" width="120" height="60" as="geometry" />
        </mxCell>
        <mxCell id="U9MDgQQBb6Hw-BR3MC8H-34" style="edgeStyle=orthogonalEdgeStyle;rounded=0;orthogonalLoop=1;jettySize=auto;html=1;exitX=0.5;exitY=0;exitDx=0;exitDy=0;entryX=0.5;entryY=1;entryDx=0;entryDy=0;endArrow=none;endFill=0;" edge="1" parent="1" source="rF3KOP-z4oXcImILUK9P-2" target="U9MDgQQBb6Hw-BR3MC8H-31">
          <mxGeometry relative="1" as="geometry">
            <Array as="points">
              <mxPoint x="500" y="170" />
              <mxPoint x="400" y="170" />
            </Array>
          </mxGeometry>
        </mxCell>
        <mxCell id="U9MDgQQBb6Hw-BR3MC8H-35" style="edgeStyle=orthogonalEdgeStyle;rounded=0;orthogonalLoop=1;jettySize=auto;html=1;exitX=0.5;exitY=0;exitDx=0;exitDy=0;entryX=0.5;entryY=1;entryDx=0;entryDy=0;endArrow=none;endFill=0;" edge="1" parent="1" source="rF3KOP-z4oXcImILUK9P-2" target="U9MDgQQBb6Hw-BR3MC8H-28">
          <mxGeometry relative="1" as="geometry" />
        </mxCell>
        <mxCell id="U9MDgQQBb6Hw-BR3MC8H-36" style="edgeStyle=orthogonalEdgeStyle;rounded=0;orthogonalLoop=1;jettySize=auto;html=1;exitX=0.5;exitY=0;exitDx=0;exitDy=0;entryX=0.5;entryY=1;entryDx=0;entryDy=0;endArrow=none;endFill=0;" edge="1" parent="1" source="rF3KOP-z4oXcImILUK9P-2" target="U9MDgQQBb6Hw-BR3MC8H-30">
          <mxGeometry relative="1" as="geometry" />
        </mxCell>
        <mxCell id="U9MDgQQBb6Hw-BR3MC8H-37" style="edgeStyle=orthogonalEdgeStyle;rounded=0;orthogonalLoop=1;jettySize=auto;html=1;exitX=0.5;exitY=0;exitDx=0;exitDy=0;entryX=0.5;entryY=1;entryDx=0;entryDy=0;endArrow=none;endFill=0;" edge="1" parent="1" source="rF3KOP-z4oXcImILUK9P-2" target="U9MDgQQBb6Hw-BR3MC8H-29">
          <mxGeometry relative="1" as="geometry">
            <Array as="points">
              <mxPoint x="500" y="170" />
              <mxPoint x="595" y="170" />
            </Array>
          </mxGeometry>
        </mxCell>
        <mxCell id="rF3KOP-z4oXcImILUK9P-2" value="PAQUET" style="rounded=0;whiteSpace=wrap;html=1;" parent="1" vertex="1">
          <mxGeometry x="440" y="190" width="120" height="60" as="geometry" />
        </mxCell>
        <mxCell id="rF3KOP-z4oXcImILUK9P-4" style="edgeStyle=orthogonalEdgeStyle;rounded=0;orthogonalLoop=1;jettySize=auto;html=1;entryX=1;entryY=0.5;entryDx=0;entryDy=0;" parent="1" source="rF3KOP-z4oXcImILUK9P-3" target="rF3KOP-z4oXcImILUK9P-1" edge="1">
          <mxGeometry relative="1" as="geometry" />
        </mxCell>
        <mxCell id="rF3KOP-z4oXcImILUK9P-5" style="edgeStyle=orthogonalEdgeStyle;rounded=0;orthogonalLoop=1;jettySize=auto;html=1;entryX=0;entryY=0.5;entryDx=0;entryDy=0;endArrow=doubleBlock;endFill=1;" parent="1" source="rF3KOP-z4oXcImILUK9P-3" target="rF3KOP-z4oXcImILUK9P-2" edge="1">
          <mxGeometry relative="1" as="geometry" />
        </mxCell>
        <mxCell id="rF3KOP-z4oXcImILUK9P-3" value="Reparteix" style="rhombus;whiteSpace=wrap;html=1;" parent="1" vertex="1">
          <mxGeometry x="300" y="200" width="80" height="40" as="geometry" />
        </mxCell>
        <mxCell id="U9MDgQQBb6Hw-BR3MC8H-38" style="edgeStyle=orthogonalEdgeStyle;rounded=0;orthogonalLoop=1;jettySize=auto;html=1;exitX=0.5;exitY=0;exitDx=0;exitDy=0;entryX=0.5;entryY=1;entryDx=0;entryDy=0;endArrow=none;endFill=0;" edge="1" parent="1" source="U9MDgQQBb6Hw-BR3MC8H-1" target="U9MDgQQBb6Hw-BR3MC8H-32">
          <mxGeometry relative="1" as="geometry" />
        </mxCell>
        <mxCell id="U9MDgQQBb6Hw-BR3MC8H-39" style="edgeStyle=orthogonalEdgeStyle;rounded=0;orthogonalLoop=1;jettySize=auto;html=1;exitX=0.5;exitY=0;exitDx=0;exitDy=0;entryX=0.5;entryY=1;entryDx=0;entryDy=0;endArrow=none;endFill=0;" edge="1" parent="1" source="U9MDgQQBb6Hw-BR3MC8H-1" target="U9MDgQQBb6Hw-BR3MC8H-33">
          <mxGeometry relative="1" as="geometry">
            <Array as="points">
              <mxPoint x="820" y="170" />
              <mxPoint x="845" y="170" />
            </Array>
          </mxGeometry>
        </mxCell>
        <mxCell id="U9MDgQQBb6Hw-BR3MC8H-1" value="PROVINCIA" style="rounded=0;whiteSpace=wrap;html=1;" vertex="1" parent="1">
          <mxGeometry x="760" y="190" width="120" height="60" as="geometry" />
        </mxCell>
        <mxCell id="U9MDgQQBb6Hw-BR3MC8H-3" style="edgeStyle=orthogonalEdgeStyle;rounded=0;orthogonalLoop=1;jettySize=auto;html=1;entryX=0;entryY=0.5;entryDx=0;entryDy=0;" edge="1" parent="1" source="U9MDgQQBb6Hw-BR3MC8H-2" target="U9MDgQQBb6Hw-BR3MC8H-1">
          <mxGeometry relative="1" as="geometry" />
        </mxCell>
        <mxCell id="U9MDgQQBb6Hw-BR3MC8H-4" style="edgeStyle=orthogonalEdgeStyle;rounded=0;orthogonalLoop=1;jettySize=auto;html=1;exitX=0;exitY=0.5;exitDx=0;exitDy=0;entryX=1;entryY=0.5;entryDx=0;entryDy=0;endArrow=doubleBlock;endFill=1;" edge="1" parent="1" source="U9MDgQQBb6Hw-BR3MC8H-2" target="rF3KOP-z4oXcImILUK9P-2">
          <mxGeometry relative="1" as="geometry" />
        </mxCell>
        <mxCell id="U9MDgQQBb6Hw-BR3MC8H-2" value="Arriba" style="rhombus;whiteSpace=wrap;html=1;" vertex="1" parent="1">
          <mxGeometry x="620" y="200" width="80" height="40" as="geometry" />
        </mxCell>
        <mxCell id="U9MDgQQBb6Hw-BR3MC8H-7" style="edgeStyle=orthogonalEdgeStyle;rounded=0;orthogonalLoop=1;jettySize=auto;html=1;exitX=0.5;exitY=0;exitDx=0;exitDy=0;entryX=0.5;entryY=1;entryDx=0;entryDy=0;endArrow=doubleBlock;endFill=1;" edge="1" parent="1" source="U9MDgQQBb6Hw-BR3MC8H-5" target="rF3KOP-z4oXcImILUK9P-1">
          <mxGeometry relative="1" as="geometry" />
        </mxCell>
        <mxCell id="U9MDgQQBb6Hw-BR3MC8H-8" style="edgeStyle=orthogonalEdgeStyle;rounded=0;orthogonalLoop=1;jettySize=auto;html=1;exitX=0.5;exitY=1;exitDx=0;exitDy=0;entryX=0.5;entryY=0;entryDx=0;entryDy=0;endArrow=doubleBlock;endFill=1;" edge="1" parent="1" source="U9MDgQQBb6Hw-BR3MC8H-5" target="U9MDgQQBb6Hw-BR3MC8H-6">
          <mxGeometry relative="1" as="geometry" />
        </mxCell>
        <mxCell id="U9MDgQQBb6Hw-BR3MC8H-54" style="edgeStyle=orthogonalEdgeStyle;rounded=0;orthogonalLoop=1;jettySize=auto;html=1;exitX=1;exitY=0.5;exitDx=0;exitDy=0;endArrow=none;endFill=0;" edge="1" parent="1" source="U9MDgQQBb6Hw-BR3MC8H-5" target="U9MDgQQBb6Hw-BR3MC8H-53">
          <mxGeometry relative="1" as="geometry" />
        </mxCell>
        <mxCell id="U9MDgQQBb6Hw-BR3MC8H-5" value="Condueix" style="rhombus;whiteSpace=wrap;html=1;" vertex="1" parent="1">
          <mxGeometry x="140" y="300" width="80" height="40" as="geometry" />
        </mxCell>
        <mxCell id="U9MDgQQBb6Hw-BR3MC8H-40" style="edgeStyle=orthogonalEdgeStyle;rounded=0;orthogonalLoop=1;jettySize=auto;html=1;exitX=0.5;exitY=1;exitDx=0;exitDy=0;entryX=0.5;entryY=0;entryDx=0;entryDy=0;endArrow=none;endFill=0;" edge="1" parent="1" source="U9MDgQQBb6Hw-BR3MC8H-6" target="U9MDgQQBb6Hw-BR3MC8H-25">
          <mxGeometry relative="1" as="geometry" />
        </mxCell>
        <mxCell id="U9MDgQQBb6Hw-BR3MC8H-41" style="edgeStyle=orthogonalEdgeStyle;rounded=0;orthogonalLoop=1;jettySize=auto;html=1;exitX=0.5;exitY=1;exitDx=0;exitDy=0;entryX=0.5;entryY=0;entryDx=0;entryDy=0;endArrow=none;endFill=0;" edge="1" parent="1" source="U9MDgQQBb6Hw-BR3MC8H-6" target="U9MDgQQBb6Hw-BR3MC8H-23">
          <mxGeometry relative="1" as="geometry">
            <Array as="points">
              <mxPoint x="180" y="470" />
              <mxPoint x="155" y="470" />
            </Array>
          </mxGeometry>
        </mxCell>
        <mxCell id="U9MDgQQBb6Hw-BR3MC8H-42" style="edgeStyle=orthogonalEdgeStyle;rounded=0;orthogonalLoop=1;jettySize=auto;html=1;exitX=0.5;exitY=1;exitDx=0;exitDy=0;endArrow=none;endFill=0;" edge="1" parent="1" source="U9MDgQQBb6Hw-BR3MC8H-6" target="U9MDgQQBb6Hw-BR3MC8H-24">
          <mxGeometry relative="1" as="geometry" />
        </mxCell>
        <mxCell id="U9MDgQQBb6Hw-BR3MC8H-43" style="edgeStyle=orthogonalEdgeStyle;rounded=0;orthogonalLoop=1;jettySize=auto;html=1;exitX=0.5;exitY=1;exitDx=0;exitDy=0;endArrow=none;endFill=0;" edge="1" parent="1" source="U9MDgQQBb6Hw-BR3MC8H-6" target="U9MDgQQBb6Hw-BR3MC8H-26">
          <mxGeometry relative="1" as="geometry" />
        </mxCell>
        <mxCell id="U9MDgQQBb6Hw-BR3MC8H-6" value="CAMIÓ" style="rounded=0;whiteSpace=wrap;html=1;" vertex="1" parent="1">
          <mxGeometry x="120" y="390" width="120" height="60" as="geometry" />
        </mxCell>
        <mxCell id="U9MDgQQBb6Hw-BR3MC8H-9" value="dni" style="ellipse;whiteSpace=wrap;html=1;fontStyle=4" vertex="1" parent="1">
          <mxGeometry x="80" y="130" width="50" height="30" as="geometry" />
        </mxCell>
        <mxCell id="U9MDgQQBb6Hw-BR3MC8H-11" value="nom" style="ellipse;whiteSpace=wrap;html=1;" vertex="1" parent="1">
          <mxGeometry x="130" y="130" width="50" height="30" as="geometry" />
        </mxCell>
        <mxCell id="U9MDgQQBb6Hw-BR3MC8H-12" value="telèfon" style="ellipse;whiteSpace=wrap;html=1;" vertex="1" parent="1">
          <mxGeometry x="180" y="130" width="50" height="30" as="geometry" />
        </mxCell>
        <mxCell id="U9MDgQQBb6Hw-BR3MC8H-13" value="adreça" style="ellipse;whiteSpace=wrap;html=1;" vertex="1" parent="1">
          <mxGeometry x="230" y="130" width="50" height="30" as="geometry" />
        </mxCell>
        <mxCell id="U9MDgQQBb6Hw-BR3MC8H-15" value="&lt;div&gt;salari&lt;/div&gt;" style="ellipse;whiteSpace=wrap;html=1;" vertex="1" parent="1">
          <mxGeometry x="30" y="160" width="50" height="30" as="geometry" />
        </mxCell>
        <mxCell id="U9MDgQQBb6Hw-BR3MC8H-16" value="població" style="ellipse;whiteSpace=wrap;html=1;" vertex="1" parent="1">
          <mxGeometry x="30" y="190" width="50" height="30" as="geometry" />
        </mxCell>
        <mxCell id="U9MDgQQBb6Hw-BR3MC8H-23" value="model" style="ellipse;whiteSpace=wrap;html=1;" vertex="1" parent="1">
          <mxGeometry x="130" y="480" width="50" height="30" as="geometry" />
        </mxCell>
        <mxCell id="U9MDgQQBb6Hw-BR3MC8H-24" value="tipus" style="ellipse;whiteSpace=wrap;html=1;" vertex="1" parent="1">
          <mxGeometry x="180" y="480" width="50" height="30" as="geometry" />
        </mxCell>
        <mxCell id="U9MDgQQBb6Hw-BR3MC8H-25" value="matrícula" style="ellipse;whiteSpace=wrap;html=1;fontStyle=4" vertex="1" parent="1">
          <mxGeometry x="70" y="480" width="60" height="30" as="geometry" />
        </mxCell>
        <mxCell id="U9MDgQQBb6Hw-BR3MC8H-26" value="potencia" style="ellipse;whiteSpace=wrap;html=1;" vertex="1" parent="1">
          <mxGeometry x="230" y="480" width="50" height="30" as="geometry" />
        </mxCell>
        <mxCell id="U9MDgQQBb6Hw-BR3MC8H-28" value="descripció" style="ellipse;whiteSpace=wrap;html=1;" vertex="1" parent="1">
          <mxGeometry x="440" y="130" width="60" height="30" as="geometry" />
        </mxCell>
        <mxCell id="U9MDgQQBb6Hw-BR3MC8H-29" value="adreça-destinatari" style="ellipse;whiteSpace=wrap;html=1;" vertex="1" parent="1">
          <mxGeometry x="560" y="130" width="70" height="30" as="geometry" />
        </mxCell>
        <mxCell id="U9MDgQQBb6Hw-BR3MC8H-30" value="destinatari" style="ellipse;whiteSpace=wrap;html=1;" vertex="1" parent="1">
          <mxGeometry x="500" y="130" width="60" height="30" as="geometry" />
        </mxCell>
        <mxCell id="U9MDgQQBb6Hw-BR3MC8H-31" value="&lt;u&gt;codi-paquet&lt;/u&gt;" style="ellipse;whiteSpace=wrap;html=1;" vertex="1" parent="1">
          <mxGeometry x="380" y="130" width="60" height="30" as="geometry" />
        </mxCell>
        <mxCell id="U9MDgQQBb6Hw-BR3MC8H-32" value="&lt;u&gt;Codi-provincia&lt;/u&gt;" style="ellipse;whiteSpace=wrap;html=1;" vertex="1" parent="1">
          <mxGeometry x="750" y="130" width="70" height="30" as="geometry" />
        </mxCell>
        <mxCell id="U9MDgQQBb6Hw-BR3MC8H-33" value="Nom" style="ellipse;whiteSpace=wrap;html=1;" vertex="1" parent="1">
          <mxGeometry x="820" y="130" width="50" height="30" as="geometry" />
        </mxCell>
        <mxCell id="U9MDgQQBb6Hw-BR3MC8H-44" value="1:n" style="text;html=1;strokeColor=none;fillColor=none;align=center;verticalAlign=middle;whiteSpace=wrap;rounded=0;" vertex="1" parent="1">
          <mxGeometry x="180" y="370" width="40" height="20" as="geometry" />
        </mxCell>
        <mxCell id="U9MDgQQBb6Hw-BR3MC8H-45" value="1:n" style="text;html=1;strokeColor=none;fillColor=none;align=center;verticalAlign=middle;whiteSpace=wrap;rounded=0;" vertex="1" parent="1">
          <mxGeometry x="180" y="250" width="40" height="20" as="geometry" />
        </mxCell>
        <mxCell id="U9MDgQQBb6Hw-BR3MC8H-47" value="1:1" style="text;html=1;strokeColor=none;fillColor=none;align=center;verticalAlign=middle;whiteSpace=wrap;rounded=0;" vertex="1" parent="1">
          <mxGeometry x="240" y="220" width="40" height="20" as="geometry" />
        </mxCell>
        <mxCell id="U9MDgQQBb6Hw-BR3MC8H-49" value="1:n" style="text;html=1;strokeColor=none;fillColor=none;align=center;verticalAlign=middle;whiteSpace=wrap;rounded=0;" vertex="1" parent="1">
          <mxGeometry x="400" y="220" width="40" height="20" as="geometry" />
        </mxCell>
        <mxCell id="U9MDgQQBb6Hw-BR3MC8H-51" value="1:1" style="text;html=1;strokeColor=none;fillColor=none;align=center;verticalAlign=middle;whiteSpace=wrap;rounded=0;" vertex="1" parent="1">
          <mxGeometry x="720" y="220" width="40" height="20" as="geometry" />
        </mxCell>
        <mxCell id="U9MDgQQBb6Hw-BR3MC8H-52" value="1:n" style="text;html=1;strokeColor=none;fillColor=none;align=center;verticalAlign=middle;whiteSpace=wrap;rounded=0;" vertex="1" parent="1">
          <mxGeometry x="560" y="220" width="40" height="20" as="geometry" />
        </mxCell>
        <mxCell id="U9MDgQQBb6Hw-BR3MC8H-53" value="data" style="ellipse;whiteSpace=wrap;html=1;" vertex="1" parent="1">
          <mxGeometry x="240" y="305" width="50" height="30" as="geometry" />
        </mxCell>
      </root>
    </mxGraphModel>
  </diagram>
</mxfile>
